<svg height="138" viewBox="0 0 220 138" width="220" xmlns="http://www.w3.org/2000/svg"><g fill="#9e7800" fill-rule="evenodd"><path d="m153.427061 109.781222h-3.04406c-.125312.005557-.224271.102062-.224271.218778 0 .119242.098959.215242.224271.218778h3.04406c.123698-.003536.223733-.099536.223733-.218778 0-.116716-.100035-.213221-.223733-.218778"/><path d="m186.600623 109.781222h-3.042516c-.125292.005557-.224774.102062-.224774.218778 0 .119242.099482.215242.224774.218778h3.042516c.124755-.003536.224774-.099536.224774-.218778 0-.116716-.100019-.213221-.224774-.218778"/><path d="m159.082103 106.794673h1.358893c.107973-.008085.193925-.133389.193925-.286989 0-.155116-.085952-.281431-.193925-.286484h-1.358893c-.107617.005053-.193214.131368-.193214.286484 0 .1536.085597.278904.193214.286989"/><path d="m157.428266 108.540704h2.920196c.159494-.008084.286459-.133389.286459-.286483 0-.155621-.286459-.286989-.286459-.286989h-2.920196c-.158968.005053-.285409.131368-.285409.286989 0 .153094.126441.278399.285409.286483"/><path d="m157.428266 106.794673h2.920196c.159494-.008085.286459-.133389.286459-.286484 0-.155621-.126965-.281936-.286459-.286989h-2.920196c-.158968.005053-.285409.131368-.285409.286989 0 .153095.126441.278399.285409.286484"/><path d="m160.347501 106.75004v3.007857c.007604.1346.133825.242103.28742.242103.156129 0 .28235-.107503.287419-.242103v-3.007857c-.005069-.134601-.13129-.242103-.287419-.242103-.153595 0-.279816.107502-.28742.242103"/><path d="m157.428266 110.286736h2.920196c.159494-.008084.286459-.133389.286459-.286989 0-.155115-.126965-.281431-.286459-.286483h-2.920196c-.158968.005052-.285409.131368-.285409.286483 0 .1536.126441.278905.285409.286989"/><path d="m157.440473 113.7788h2.896285c.165767-.008085.298163-.13339.298163-.286484 0-.155621-.132396-.281936-.298163-.286989h-2.896285c-.165768.005053-.297616.131368-.297616.286989 0 .153094.131848.278399.297616.286484"/><path d="m157.440473 112.032515h2.896285c.165767-.007579.298163-.133389.298163-.286483 0-.155621-.132396-.281431-.298163-.286484h-2.896285c-.165768.005053-.297616.130863-.297616.286484 0 .153094.131848.278904.297616.286483"/><path d="m156.855438 112.043322v2.896937c.007603.165586.133825.297836.287419.297836.156129 0 .28235-.13225.287419-.297836v-2.896937c-.005069-.165586-.13129-.29729-.287419-.29729-.153594 0-.279816.131704-.287419.29729"/><path d="m163.757952 107.101009v.558185c.009631.330998.171843.594774.369539.594774.20023 0 .362442-.263776.368525-.594774v-.558185c-.006083-.330998-.168295-.593072-.368525-.593072-.197696 0-.359908.262074-.369539.593072"/><path d="m165.655631 103.015873c-.118257 0-.215993.143689-.219471.323974v9.674553c0 .247017-.019478.46013-.059824.651177-.080693.395012-.247992.757734-.457725.995064-.09391.106556-.188168.189971-.279991.248093-.077215.051125-.15756.089873-.238949.114628-.068867.022603-.123126.030676-.159995.033905l-.061215.007534c-.029565.003767-.051477.041977-.051477.086106v.005382c.001391.046282.02713.082338.056694.081806l.060172-.002158c.035477.001076.247297 0 .247297 0 .039998.001076.100518-.003229.177385-.019912.090432-.018836.18156-.053279.269209-.101175.110605-.056507.218428-.141537.321729-.25186.106779-.108709.212167-.261547.31199-.453133.107127-.209884.183994-.429992.230254-.656021.049042-.224414.071302-.486499.071302-.776569v-9.63742c-.005565-.180285-.101214-.323974-.217385-.323974"/><path d="m156.925168 106.507937c-.118233 0-.215602.135105-.219427.303482v4.598106c0 .231393-.019474.430017-.059813.609485-.080677.370531-.247595.709806-.457285.932124-.094239.099816-.188131.178459-.279936.232401-.077547.048395-.157529.084188-.239249.107378-.068506.021677-.123102.029239-.159615.032264l-.061203.006049c-.029559.004033-.051815.039322-.051815.081164v.004537c.001739.043355.027472.077635.057031.077136l.059812-.002021c.035818.001008.247595 0 .247595 0 .039991.001008.100151-.002521.177003-.018653.090414-.017644.181523-.049404.269503-.094775.110235-.052933.218384-.133089.321317-.236434.107105-.101329.212472-.243996.312276-.424472.106757-.195599.183609-.401786.230207-.613517.049032-.21022.071288-.456736.071288-.728458v-4.562314c-.005912-.168377-.101194-.303482-.217689-.303482"/><path d="m160.417536 111.746032c-.118257 0-.215993.141498-.219471.319034v2.729275c0 .24325-.019478.452583-.059824.641247-.080693.388989-.247992.746179-.457725.97989-.09391.104931-.188168.187075-.279991.24378-.077215.050876-.15756.088503-.238949.112881-.068867.022788-.123127.030737-.159995.033917l-.061215.007419c-.029565.00371-.051477.041337-.051477.084793v.00477c.001391.045576.027129.081613.056694.081089l.060172-.002126c.035477.00106.247296 0 .247296 0 .039999.00106.100519-.003179.177386-.019608.090432-.018548.181559-.052466.269209-.099632.110605-.055645.218428-.139378.321729-.248019.106779-.107052.212167-.257559.31199-.446224.107127-.206683.183994-.423435.230254-.646017.049041-.220991.071302-.47908.071302-.764727v-2.692708c-.005565-.177536-.101215-.319034-.217385-.319034"/><path d="m155.514129 108.194532c.123784.0999.294766.071211.383819-.066087l2.336307-3.822301c.11755-.192114.239108-.341194.372242-.455951.273393-.239758.620255-.380642.953313-.387302.148719-.003073.286751.010759.410535.044059.105973.025615.207939.063013.305452.113219.082374.03996.143375.079919.183449.108608l.06768.04662c.032505.021517.073915.011271.095287-.024078.000891-.001537.001336-.002562.002227-.003586.019591-.037399.011131-.087604-.020483-.111683l-.064118-.049181c-.036512-.031251-.259144-.210045-.259144-.210045-.040965-.034324-.105973-.082993-.194581-.134223-.103747-.062501-.215509-.11322-.330832-.150105-.142485-.049182-.296547-.074797-.456397-.075821-.163413-.006148-.346862.023053-.542779.088116-.211056.072747-.396286.178794-.553019.315579-.158069.133199-.306343.319166-.444375.54458l-2.318051 3.792587c-.079703.146007-.048089.338121.073468.436995"/><path d="m164.487906 113.17969v-4.612433c-.010138-.174253-.168295-.313289-.361429-.313289-.195161 0-.354332.139036-.360415.313289v4.612433c.006083.173795.165254.312373.360415.312373.193134 0 .351291-.138578.361429-.312373"/><path d="m173.194555 112.082284h4.562212c.188569-.009095.338471-.156126.338471-.336 0-.182399-.149902-.329936-.338471-.336504h-4.562212c-.18804.006568-.337412.154105-.337412.336504 0 .179874.149372.326905.337412.336"/><path d="m173.194555 110.335999h4.562212c.188569-.009095.338471-.156126.338471-.335999 0-.181894-.149902-.329936-.338471-.335999h-4.562212c-.18804.006063-.337412.154105-.337412.335999 0 .179873.149372.326904.337412.335999"/><path d="m173.208002 108.589967h6.281307c.194983-.009094.351961-.156125.351961-.336504 0-.181894-.156978-.329431-.351961-.335494h-6.281307c-.195534.006063-.350859.1536-.350859.335494 0 .180379.155325.32741.350859.336504"/><path d="m178.610342 108.589967h.71663c.284557-.009094.514298-.156125.514298-.336504 0-.181894-.229741-.329431-.514298-.335494h-.71663c-.286169.006063-.515104.1536-.515104.335494 0 .180379.228935.32741.515104.336504"/><path d="m173.21708 106.844188h6.264253c.199402-.009094.359937-.156631.359937-.336504 0-.1824-.160535-.329936-.359937-.335999h-6.264253c-.199965.006063-.359937.153599-.359937.335999 0 .179873.159972.32741.359937.336504"/><path d="m176.01211 103.39636v4.477717c.009124.211381.156636.379891.336589.379891.182996 0 .331521-.16851.337604-.379891v-4.477717c-.006083-.211382-.154608-.380487-.337604-.380487-.179953 0-.327465.169105-.336589.380487"/><path d="m173.95953 104.979513-1.081124 2.755189c-.062297.191152.016347.407323.182911.487887.169216.082066.361406-.002502.437399-.187649l1.082007-2.754688c.064947-.190652-.015463-.405823-.183795-.487888-.166565-.080064-.357871.003002-.437398.187149"/><path d="m174.242253 110.297901v2.896261c.010138.165937.167281.297901.361429.297901.195161 0 .354331-.131964.360414-.297901v-2.896261c-.006083-.165936-.165253-.297901-.360414-.297901-.194148 0-.351291.131965-.361429.297901"/><path d="m179.480348 110.281638v2.928788c.010138.156465.168295.281637.362443.281637.195161 0 .353318-.125172.359401-.281637v-2.928788c-.006083-.156877-.16424-.281638-.359401-.281638-.194148 0-.352305.124761-.362443.281638"/><path d="m181.587302 113.548757c0-.029912-.034316-.054954-.07903-.056694h-.005199c-.042634 0-.079029.021913-.083189.051129l-.007279.061216c-.003119.037564-.010918.091823-.033275.159995-.023397.081736-.061352.161734-.110746.239644-.056152.091476-.136221.185734-.239687.279644-.228769.21008-.579202.376683-.960831.457724-.184575.039999-.390987.059824-.629635.059824h-2.287692-.441941c-.395146 0-1.996531.015652-2.495144-.060519-.334835-.051825-2.580932-.710934-2.580932-.710934-.96603-.149909-2.024088.326946-2.263776 1.020489-.018197.051477.029636.102606.105546.114431.07747.011826.15338-.019825.171577-.071302.211092-.611807 1.078335-.766236 1.842112-.647979 0 0 2.00589.613545 2.218022.6765.389947.11617.974868.11617 1.486479.11617h.406066 3.804328c.098266 0 .189774-.00626.281282-.012173.162218-.005218.316637-.023304.460138-.057738.002599-.000695.005719-.000695.008839-.001391.21837-.046259.430502-.123126.633794-.230253.184575-.099823.333275-.205211.437781-.311991.031196-.030607.056673-.062606.083189-.094257.064991-.074085.121664-.149909.160139-.227472.045753-.087997.079549-.179124.097746-.269208.016118-.076868.020278-.137735.019238-.177038 0 0 .00104-.212167 0-.247645z"/><path d="m169.637637 106.129615 1.070048.371288c.18556.052348.362261-.192915.396715-.555478.036915-.36935-.082198-.724158-.265297-.805589l-1.069556-.36935c-.18556-.058165-.362753.18516-.398191.55354-.035439.365471.082689.718341.266281.805589"/><path d="m172.705306 111.534404c-.119001.190081-.48545.829607-.931863 1.312804-.526377.568468-.800899.644855-.800899.644855s1.06031-1.881271.775084-2.026941c-.164965-.084382-.472228-.07017-.472228-.07017h-.865752s-.31293-.010215-.413672-.089712c-.099483-.078608.005037-.270466.054149-.351295.341893-.567135.478524-.834492.76501-1.408289.041556-.083938.24241-.413027.195817-.529385-.048482-.116359-.43445-.091932-.43445-.091932h-.705824s-.505599-.015544-.505599-.332198c0-.314878.478525-.334863.478525-.334863h.949493s.885271-.040415 1.131459.161214c.214077.175425.006296.673722-.03463.755884-.334338.662619-.503081.838489-.792084 1.307919-.042816.07017-.190151.224278-.108298.282013.096335.067506.324893.041303.324893.041303s.865752-.049741 1.023161-.042191c.158669.007106.354486-.006218.452709.104811.13978.158105.03526.476091-.085001.666173"/><path d="m59.2052868 78.7910647h-.5221794l-.0009512-.0557886c-.0019023-.0914732-.0732382-.1638475-.1597926-.1638475-.0870299 0-.1583658.0723743-.1597926.1638475l-.0014267.0557886h-.2249461c-.0884566 0-.1597926.0748874-.1597926.1688735v35.1860078c0 .927799-.2244706 1.868163-.6410727 2.635633-.4446609.561404-1.0343717.987609-1.6830536 1.184125-.3452661.11007-.6876788.161838-1.0467366.161838-.123649 0-.2458714-.005026-.3714227-.017591-.4237357-.039203-.8488982-.165858-1.2317346-.369914-.8527028-.444298-1.328276-1.136881-1.5346747-1.508805-.3081715-.559896-.4213579-1.050433-.4651106-1.378631-.0218764-.104038-.0261566-.194003-.0299612-.26487-.0014267-.046742-.0180717-.2513-.0180717-.2513-.0061825-.088457-.0765673-.155806-.1597926-.155806h-.0085604c-.0865543.005529-.1536101.083432-.1512936.174402 0 0 .0052927.208077.0052927.244264.0004755.087452.0009511.195009.019974.310607.0470818.53175.1964118 1.049428.444661 1.53695.2639431.522201.7685263 1.250971 1.6645062 1.765633.558323.329203 1.299266.512652 1.9726777.517678 2.2099887 0 4.6230472-1.544992 4.6230472-4.581198v-35.1890228c0-.0939861-.071336-.1688735-.1597926-.1688735"/><path d="m148.323038 111.051294c-.109636-1.281265-.299842-2.480735-.567048-3.564374-.254968-1.083131-.576737-2.130191-.960719-3.110699-.642009-1.676515-1.450257-3.259552-2.399758-4.7038959-.820996-1.247734-1.593039-2.161181-2.057081-2.710875l-.808758-.884489c-.027536-.0304821-.064762-.0452151-.102497-.0452151-.033146 0-.066292.0106688-.092808.0355625-.056603.0513115-.060683.1366614-.011219.1935613l.71952.9109069c.480869.5857643 1.067295 1.3849035 1.922967 2.6885214.743997 1.1324099 1.578761 2.8261989 2.188135 4.4874739.130543.327174.23865.668574.346756 1.019626l.144312.447071c.039775.157491.084649.314981.128504.475012.099947.362229.203974.736143.277915 1.124282.243749 1.0496.297292 1.542902.401319 2.849568.100967 1.237574.096378 2.532047-.012238 3.845318-.122385 1.437739-.349816 2.800797-.678215 4.053611-.736347 2.849061-2.029544 5.61582-3.738849 8.00206-1.820471 2.566593-4.189632 4.811092-6.855576 6.492688-2.753143 1.744592-5.907096 2.937458-9.117652 3.448034-1.272799.202706-2.578235.306853-3.883161.306853-1.98416 0-3.956591-.236236-5.862221-.700581-3.058595-.743255-6.021321-2.121554-8.562331-3.984518l-.183067-.140726c-5.699552-4.487982-8.6760474-10.401001-8.8841012-17.757349-.0071391-.24284-.0423246-1.052648-.0795499-1.328511-.1310535-.999813-.4936179-1.840103-1.0443485-2.478703-.753685-.876361-1.857696-1.375251-3.2136151-1.375251l-5.4680412-.261638c-2.3370356 0-3.9708698-1.443836-3.9708698-3.510014 0-.095003-.0770003-.171208-.1713384-.171208-.094848 0-.1718483.076205-.1718483.171208 0 2.881067 1.6929867 4.741491 4.3140565 4.741491l5.4680412.26113c1.3880451 0 1.9938488.536993 2.5058243 1.166448.5344127.656382.6720953 1.777615.7077908 2.457874.0866891 1.676515.1886763 3.04313.5599095 4.73387.0545631.261638.1126958.524292.1794974.787963.3197297 1.288885.7343077 2.545763 1.2320047 3.736089.529823 1.255863 1.19478 2.507661 1.977021 3.723389 1.631285 2.537127 3.780664 4.823285 6.213057 6.609028 2.608832 1.924437 5.649579 3.348459 8.793333 4.120164 1.938265.480093 3.949452.724458 5.983586.724458 1.354389 0 2.712858-.108212 4.038691-.325651 3.301834-.532928 6.540436-1.765929 9.36395-3.566914 2.733766-1.735447 5.16157-4.047515 7.021816-6.684725 1.730212-2.458889 3.033608-5.305917 3.766385-8.229659.330439-1.305142.547161-2.664136.660367-4.153695.100967-1.344768.095868-2.664643-.017848-3.92457"/><path d="m8.07157431 71.5873016c-.04271947 0-.08696465-.0168805-.11849569-.052176l-.93220001-1.0317543c-.53755342-.6404345-1.43059392-1.7074844-2.37855945-3.1622734-1.09748371-1.6854886-2.03171798-3.5321089-2.77371461-5.4887079-.44194316-1.1448023-.81472145-2.3653109-1.10867214-3.6277649-.31022477-1.2660347-.5304335-2.6655785-.65604911-4.1602668-.13171838-1.4696233-.13782117-3.0103491-.02034261-4.5776745.13120983-1.7386876.37989821-3.323405.76183068-4.8467389.84726962-3.4108765 2.35313118-6.7317239 4.35382668-9.600891 2.14817942-3.0773595 4.95342505-5.7736297 8.11314065-7.7982622 3.2629543-2.1008503 7.0049771-3.5402934 10.8207418-4.1618013 1.5328155-.2526954 3.1037734-.3805777 4.66812-.3805777 2.3485541 0 4.6747313.2844102 6.9139439.8460692 3.6336984.9002914 7.1473753 2.5627612 10.1616413 4.8058166 2.8103313 2.0849929 5.2936552 4.7505714 7.1799235 7.7113022.9027032 1.4169358 1.6716538 2.8788862 2.2844749 4.3428827.5751872 1.3903363 1.0542556 2.8563789 1.4244911 4.3592516.0762848.3084521.1429068.6153696.2064775.920241.429229 1.9724564.6468949 3.9894159.6468949 5.9930757v13.8721596h-1.2871785v-13.8721596c0-8.9144188-3.9006951-17.1270197-10.7032632-22.5359291l-.2110546-.1636893c-2.9379812-2.173999-6.3596078-3.7812237-9.894136-4.6487771-2.2041216-.5411979-4.4830022-.8158891-6.7766313-.8158891-1.5058616 0-3.0152831.1202094-4.4865622.3575589-3.7104917.5949085-7.3543614 1.9862678-10.5364538 4.0221539-3.0803795 1.9612028-5.81900307 4.5797206-7.92192018 7.5742124-1.97475868 2.7832302-3.46841467 6.0130254-4.32076995 9.3364304-.37938964 1.4604158-.64282642 3.0512715-.78166472 4.7285757-.12815843 1.5335644-.13375264 3.0420639-.01576552 4.4855993.12002139 1.5248684.31480186 2.8604711.59654698 4.086095.08594752.4516802.20647747.8885261.32192178 1.3105377.05034795.1861966.10171304.3703471.14799247.5550092l.16630082.5222712c.12663274.4076888.25021408.8077046.40125794 1.1887938.70487137 1.9386956 1.59791187 3.76997 2.65674462 5.445228.9118574 1.4430238 1.74946429 2.472732 2.30329179 3.1540889l.91389167 1.0409619c.05950213.0649642.05289078.1667585-.011697.2260959-.03153104.0281341-.06967343.0409223-.10832439.0409223"/><path d="m36.5279046 104.707734-.4021459-.055164-.7770529-.117784-.7602143-.190839c-.2352455-.053673-.4828723-.132195-.751795-.240039l-.2372265-.088462c-.1619479-.058146-.3243911-.117287-.4828722-.184378-.1317375-.065104-.2545604-.124245-.3783738-.184379-.3357819-.160026-.6844404-.326016-1.0053648-.541704-.792901-.45871-1.5773827-1.088876-2.3891033-1.919821-.642344-.656009-1.2247622-1.4576323-1.7819225-2.4471127-.3724307-.744471-.8250925-1.7245089-1.0459756-2.7691537-.1059843-.3627929-.1584811-.7454649-.2104828-1.1142216l-.041106-.2952041c-.0460586-.3553382-.0544779-.6833428-.0628972-1.0307294l-.0108956-.4000662c.0133718-.1764267.0217911-.3289985.0302105-.4805764.0153528-.2882464.0316962-.5725171.0792405-.870703.0222864-.1252381.0416013-.2465004.0599257-.3667688.0520016-.3260166.105489-.6619728.2060255-.9745711.4070985-1.593804 1.1816751-3.1120675 2.23607-4.3803518.8721416-1.0590572 1.9755666-1.9685244 3.1904237-2.6295033 1.0380516-.5561168 2.0627313-.9427646 2.9626071-1.1142215.4016506-.107844.7760623-.1466081 1.1063965-.1818935l.1961204-.02137c.1094511-.0124244.2134543-.0258427.3110193-.0318065 0 0 1.0999582-.0134183 1.1004535-.0134183.0881551 0 .1619479.0695767.1669004.1600264.0044573.0884619-.0624019.1659902-.1520428.1734449l-1.0806434.0993953c-.0792405.0114305-.1733387.0308125-.27338.0511886l-.3283531.06411c-.2758562.0516855-.5888565.1118197-.9142381.2186697-.8439122.212209-1.7858845.6326512-2.7352857 1.2170957-1.072224.6704214-2.0503499 1.5664703-2.827898 2.5867632-.9003711 1.1862832-1.5546011 2.5947149-1.8913735 4.0707355-.0782501.2718462-.1119273.5347468-.1480809.8135507-.0163433.1252381-.0321914.2504762-.0520016.3757143-.0341725.2514701-.0406108.5277891-.0475443.8055991-.0039621.1590325-.0079241.318562-.0163434.4756066l.0534874.7956595c.0069335.1421353.0133718.2827797.0430871.4224302l.0505158.3076285c.0495254.3195559.1020223.6495484.2000825.9611527.2080065.9054914.6096572 1.7478668.9771353 2.4515857.0673545.104862.1401568.2226455.2124638.3429138.1654147.2718462.3214196.5287831.51754.7628591.0559637.0710677.1059843.1406444.1565002.2097241.0832026.1118198.1659099.2251304.2585224.3289986l.4630621.5084067c.7280228.734035 1.4253398 1.286176 2.1266189 1.68326.27338.182391.5581508.316574.8577793.458213.1248039.05914.2491125.117286.3719354.178414.1292612.053674.2723895.103868.4145273.155554l.2233594.079516c.2228641.089456.4323564.15456.6438296.200779l.6819642.179905.9929835.157045 1.0776718.056158 1.3713573-.068583c.3174575 0 .6086666-.046715.9172096-.097407.1555097-.023855.3115145-.050195.4675194-.069577 1.993891-.332974 3.7312407-.886109 5.1580663-1.644495.2921996-.123251.5561698-.283277.8107301-.439825.1148989-.068582.2293024-.138656.3451918-.204754l.0822121-.048207c.3541063-.20873.6879072-.404042.9934787-.645572.1257944-.094426.2496078-.183385.3734212-.2708527.2223689-.1600264.4437472-.3195559.6537348-.488528l.931572-.8239872c1.2861736-1.2498962 2.2415178-2.4098396 2.9165484-3.5389704.8384644-1.2891573 1.3664047-2.5554537 1.7328924-3.5146186.4046222-1.1733618.6591825-2.1315327.7770529-2.9247073.144614-.6699245.1906726-1.2220655.2283119-1.6653687l.0891456-.9959411c.0074289-.0884618.0802311-.1535658.1664053-.1535658h.0074288c.0901361.0049698.1599669.0795163.1589868.1689721 0 0-.0118965.9298432-.0118965 1.0580632-.0014858.4423092-.0029715.9929592-.1119273 1.6643746-.0728023.8234903-.2778373 1.8318558-.6260006 3.0723095-.3268674 1.0426569-.8057776 2.4063607-1.6219555 3.7660887-.6765164 1.253375-1.6690047 2.5549568-2.9457684 3.8595204-1.1752368 1.2036773-2.648121 2.2885773-4.3800229 3.2263723-1.6160125.887103-3.4746992 1.5123-5.5230681 1.856704-.1634337.022364-.3199339.04771-.4779198.07405-.3308294.056158-.6730496.113311-1.0226986.115299 0 0-1.5184476.079516-1.5209238.079516-.0029716 0-1.1029298-.054171-1.1029298-.054171"/><path d="m198.483009 106.507937c-2.133359 0-4.368478-.272318-6.645016-.811354-2.359888-.551761-4.75148-1.465425-7.106766-2.715031-2.355286-1.296436-4.444158-2.807162-6.210367-4.4914584-3.719061-3.4922817-6.466043-7.9374202-7.942315-12.8503341-.738903-2.5012494-1.143383-4.9795936-1.202188-7.3663169-.061362-2.6661669.127327-5.0284579.574759-7.2237955.48425-2.3836692 1.299856-4.6146371 2.424319-6.6277509 1.008897-1.8293631 2.299549-3.6078257 3.94559-5.4371888 1.242585-1.392637 2.638063-2.7435357 4.526485-4.387112.784414-.6917375 1.557578-1.3249394 2.282675-1.9148759.656575-.5247839 1.32798-1.1391527 2.054611-1.8787366 1.352014-1.3839839 2.295969-2.8056342 2.807321-4.2221944.266925-.7334759.431069-1.499019.487318-2.2757603l.011761-.2036019c.00767-.1272512.016363-.2555204.012273-.3619024l-.019432-.5716123c.00358-.2794436-.035283-.5527792-.072612-.8169527l-.038351-.2824976c-.20812-1.3300294-.700041-2.6376626-1.424626-3.7778333-.617202-.9732171-1.401104-1.8369982-2.33023-2.568947-1.292186-1.0251356-2.744936-1.6888778-4.442624-2.029911l-.290959-.0509005c-.164655-.0305402-.316015-.0575175-.454592-.0732966l-1.008385-.0738057c-.087441-.0071261-.153917-.0814408-.149315-.1679716.00358-.0865308.07568-.1521924.161076-.1521924.001534 0 1.022192.0279952 1.022192.0279952.153917.0096711.314993.0325763.491409.0554816l.292493.0381753c.267949.0234142.558396.0911119.865719.1638995l.114542.0269773c.310391.0585355.633054.1689896.974637.2860607l.171303.0585355c.209143.0615896.418285.1562645.631008.2545024l.222949.1012919c.142156.0631166.286868.1282692.430047.2030929l.202495.1170711c.37431.215818.762426.4397801 1.140315.7339849 1.010942.7416199 1.876149 1.6344143 2.569031 2.6503878.820208 1.1987062 1.400081 2.5938882 1.674677 4.0333537l.049089.2860606c.051136.2921688.103805.5955356.111475.9095915l.03784.5558332c.010227.1929128.006648.321182.002557.4504692l-.004091.213782c-.033749.8815963-.187666 1.7463954-.459194 2.5755641-.496011 1.5412664-1.488033 3.1156181-2.947943 4.6818258-.754243.7991374-1.425648 1.4404834-2.113928 2.0141318-.718449.6092787-1.48292 1.2623318-2.216198 1.9372721-1.810697 1.6415403-3.142256 2.9842949-4.317343 4.3575897-1.5361 1.7794806-2.728573 3.4922816-3.644915 5.239186-1.037021 1.9744294-1.769788 4.066948-2.180404 6.2185111-.401411 2.0792844-.555328 4.3245044-.469421 6.8634201.080283 2.2100987.478626 4.5331964 1.181734 6.9061766 1.405195 4.6105651 3.999794 8.77626 7.503576 12.0450885 1.660359 1.5906399 3.617813 3.0163627 5.818671 4.2369557 2.213642 1.182927 4.457453 2.048744 6.666493 2.574037 2.236141.533946 4.42984.805246 6.519734.805246.154428 0 .309879-.003055.463285-.006109l1.793822-.059553 1.699221-.187823c.374821-.025959.753733-.10231 1.119861-.176116.189711-.036648.380445-.075332.570157-.1074l.843219-.160845 2.049498-.552779 1.16537-.43978c.156985-.065153.309879-.138959.462774-.211746l.269482-.127251c.860605-.396515 1.768766-.937078 2.777151-1.656302 1.697177-1.2653858 3.171404-2.8499176 4.25956-4.5790067 2.053589-3.2912248 2.919307-7.3347586 2.376252-11.0937587l-.142156-.9900143-.391696-1.5906398-.176927-.4922076c-.227552-.6520351-.443342-1.2674219-.739415-1.8456513-.228063-.5537971-.526692-1.0526218-.816117-1.5382123-.116588-.1954579-.233688-.3904067-.343629-.5873915-.14011-.1827327-.284822-.3858256-.428512-.5863735-.308857-.4367261-.600839-.8469839-.947535-1.2058323-.961341-1.1661299-2.086315-2.0548522-3.065554-2.7969811-.529249-.3476503-1.05543-.6785034-1.564225-.9808522-.17795-.0865308-.363059-.1812057-.546123-.2733355-.329311-.1664446-.649417-.3283081-.965944-.4693024-1.810696-.8011735-3.375944-1.069928-4.519838-1.2669129l-.278686-.0473374-1.768255-.1272512c-.087441-.0071261-.153405-.0824588-.149314-.1689896.00409-.0865308.076191-.1521924.161587-.1521924.001534 0 1.795867.0498825 1.795867.0498825l.413684.0524275c1.156677.1460843 2.740845.3471412 4.583245 1.0963962.33289.1364133.670382.2926777 1.019124.4545412.186132.0875489.37431.1740797.567601.2616285.545612.2972588 1.101963.6220038 1.665984.9701631 1.050827.7375479 2.249947 1.6201621 3.302309 2.8132693.385048.3720824.713847.8021914 1.061055 1.2587687.148803.1939308.299141.3904067.454592.5853555.128349.2041109.247494.3909156.370218.5787384.329311.5120588.669871 1.0419327.935263 1.6283062.34056.6036797.583963 1.2592778.842707 1.9525423l.191757.5110407.454592 1.6888778.17795 1.0755271c.667314 4.0185925-.181018 8.3797453-2.324093 11.9687378-1.14594 1.9046958-2.713744 3.6592349-4.534156 5.0768139-.529761.393969-1.003784.721768-1.453262 1.006302l-.379934.220908c-.381469.222435-.774698.454032-1.203211.643891l-.260278.125215c-.187155.090603-.374309.182224-.560953.260611l-1.116281.43469-.141644.052427-2.163018.608261-.895377.180188c-.197893.03563-.390161.07635-.582941.118089-.394252.082458-.801799.167971-1.225198.205129l-1.827572.217345-1.807117.079913c-.275107.009671-.547657.013744-.819185.013744"/><path d="m111.087511 48.8888889c-.043228 0-.086964-.0168805-.118495-.0511529l-.932708-1.0317544c-.537552-.6414575-1.430592-1.7085074-2.378047-3.1632964-1.097483-1.6854886-2.031716-3.5315973-2.77422-5.4876849-.441943-1.1453138-.81472-2.3658224-1.108671-3.6287879-.309716-1.2660347-.529924-2.6655785-.655539-4.1592437-.131719-1.4706464-.137821-3.0113722-.020852-4.5776745.13121-1.7386877.380407-3.3239166.762339-4.8467389.84676-3.4118996 2.352619-6.732747 4.353312-9.6019141 2.148177-3.07735946 4.953419-5.77260666 8.11313-7.79775064 3.263459-2.10136183 7.005477-3.53978186 10.821237-4.16231286 1.532813-.25167235 3.103769-.3805777 4.668114-.3805777 2.348551 0 4.674725.28441022 6.913935.84606925 3.633693.90029134 7.146857 2.56276114 10.161628 4.80683961 2.810328 2.08396984 5.293648 4.74954834 7.179914 7.71079074.902702 1.4164242 1.671652 2.8783746 2.283963 4.3428826.575187 1.3898248 1.054763 2.8563789 1.42449 4.3597631.076793.3079406.143415.6148581.206477.919218.429228 1.9734795.647403 3.990439.647403 5.9935872v18.1388244h-1.287177v-18.1388244c0-8.9139073-3.901199-17.1270196-10.70325-22.53541755l-.211054-.16471239c-2.937977-2.17399897-6.3596-3.78122362-9.894632-4.64775404-2.20361-.54222092-4.482996-.81691208-6.776114-.81691208-1.506368 0-3.015787.12072088-4.486556.35858195-3.710487.59439689-7.354861 1.98524471-10.53644 4.0211308-3.080376 1.96120284-5.819504 4.57972066-7.922419 7.57421241-1.974756 2.7842533-3.46841 6.0135369-4.320764 9.3374535-.379389 1.4593927-.642826 3.0502484-.781664 4.7275526-.128158 1.5335644-.133244 3.043087-.015765 4.4855993.120021 1.5258915.31531 2.8614941.597054 4.0866065.085948.4511687.206478.8880146.321413 1.3105377.050857.1856851.101713.3708587.148501.5544977l.166301.5227828c.126632.4071772.250213.8082161.400748 1.1887938.704871 1.938184 1.598419 3.7694584 2.65725 5.4457395.911348 1.4420007 1.749462 2.472732 2.303289 3.1540889l.913891 1.0404503c.059502.0644527.05289.1667585-.012206.2266074-.031022.0281341-.069165.0398993-.107816.0398993"/><path d="m47.3107801 73.3333333c-.0929574 0-.167923-.0797517-.167923-.1786439 0-.0983605.0749656-.1786439.167923-.1786439 2.0615535 0 3.5573668-1.7433734 3.5573668-4.1412428v-4.0529842c0-.0978288.0754654-.1786439.1679229-.1786439h1.1764599c.0924576 0 .1684227.0808151.1684227.1786439v4.0529842c0 3.0279083-1.6592383 4.4985306-5.0701723 4.4985306"/><path d="m64.4352517 73.3333333c-3.4114338 0-5.0701723-1.4706223-5.0701723-4.499594v-4.0519208c0-.0988921.0759651-.1786439.1684226-.1786439h1.1769597c.0924576 0 .1679229.0797518.1679229.1786439v4.0519208c0 2.3989328 1.4963131 4.1412428 3.5568671 4.1412428.0929573 0 .1679229.0813468.1679229.1797073 0 .0988922-.0749656.1786439-.1679229.1786439"/><path d="m75.792803 113.492063c-.3542824-.003816-.5507701-.027189-.5507701-.027189-.0912911-.010971-.1614221-.072505-.1626678-.145965-.0017772-.073936.0641217-.137855.1548083-.151212l.5126817-.074413c.0338563-.009063.0955232-.021465.1577947-.033391.1112422-.021465.2351806-.044838.3645602-.088723.2164387-.059626.4407369-.134994.6753129-.228011.2236937-.097786.4673384-.20893.7019144-.355848.2388081-.15312.4703612-.308625.6692672-.500383.1946739-.169815.3730243-.372067.5683028-.640146.1420757-.228487.2944292-.473193.3730242-.731255.0937095-.256153.1426803-.495612.1680726-.809007v-9.8650225c.0096732-.0782295.1723045-.317688.4498056-.317688.2762918 0 .433482.2394585.4425506.317688v9.8969825c-.0030229.281435-.0211602.644439-.1414711.966897-.0870591.296223-.2388081.602939-.4467827.909179-.2085792.271418-.4377141.546175-.7248883.768939-.2382035.200343-.5211458.383515-.8584999.559054-.3065208.148827-.6082049.266171-.8996112.349171-.2738736.07012-.558025.138809-.8222253.160275-.1517489.025281-.3083345.030051-.4467827.03339 0 0-.1759321.006678-.1807687.006678z"/><path d="m42.0701309 69.8412698c-.0918168 0-.165369-.077395-.165369-.1733648 0-2.5029551 1.9503674-4.697878 4.1742108-4.697878h19.5856182c2.2272988 0 3.8439663-1.5499643 3.8439663-3.685551 0-.0959699.0745395-.1733649.16685-.1733649.0908295 0 .1658626.077395.1658626.1733649 0 2.503471-1.9523419 4.6978779-4.1766789 4.6978779h-19.5856182c-2.2263116 0-3.8419918 1.5499644-3.8419918 3.6855511 0 .0959698-.0745395.1733648-.16685.1733648"/><path d="m167.285023 97.7777778c-2.301115 0-4.87485-1.7924751-4.87485-4.1921034v-23.0433476c0-1.7680669-.985663-3.5513889-3.187789-3.5513889-.184216 0-.333495-.1444151-.333495-.3208658 0-.1769592.149279-.3208658.333495-.3208658 2.495919 0 4.684811 1.9592643 4.684811 4.1931205v23.0433476c0 2.0579139 1.420795 3.5503719 3.377828 3.5503719.184217 0 .334025.1439065.334025.3208657 0 .1779763-.149808.3208658-.334025.3208658"/><path d="m167.445666 97.7777778c-2.311199 0-4.895405-1.7420646-4.895405-4.0738933v-23.2802711c0-1.865874-1.078817-3.7502423-3.487991-3.7502423-.095772 0-.173381-.0724362-.173381-.1618255s.077609-.1623393.173381-.1623393c2.502194 0 4.697806 1.9033764 4.697806 4.0744071v23.2802711c0 2.1725718 1.549974 3.7497285 3.68559 3.7497285.095773 0 .173382.0724362.173382.1618255 0 .0888756-.077609.1623393-.173382.1623393"/><path d="m136.016555 92.5396825c-2.310503 0-4.895097-1.6980673-4.895097-3.9713431v-30.468008c0-1.819322-1.078748-3.6571831-3.48722-3.6571831-.095766 0-.173921-.0701473-.173921-.1573305 0-.0881853.078155-.1588337.173921-.1588337 2.500936 0 4.951787 1.3558484 4.951787 3.4722947v30.468008c0 2.1179495 1.294498 4.1572336 3.43053 4.1572336.095767 0 .173921.0706485.173921.1578316 0 .0866821-.078154.1573305-.173921.1573305"/><path d="m103.816142 103.015873c-2.190425 0-3.9703024-1.779018-3.9703024-3.9673858v-33.9689894c0-2.0137186-1.6401904-3.6526172-3.6558823-3.6526172-.0871163 0-.1582113-.0705602-.1582113-.1571341 0-.0870743.071095-.1586354.1582113-.1586354h.7885531c2.1894239 0 3.9708026 1.7810199 3.9708026 3.9683867v33.9689894c0 2.0147198 1.640691 3.6516168 3.654881 3.6516168.087116 0 .157711.071561.157711.158635 0 .086574-.070595.157134-.157711.157134z"/><path d="m43.8237575 83.8095238c-.0957479 0-.1729638-.077629-.1729638-.173889 0-2.9188508 1.7090472-4.8062709 4.3549818-4.8062709h13.988449c2.3602354 0 4.0090542-1.4692584 4.0090542-3.5761098 0-.0957425.077216-.173889.1729638-.173889.0957479 0 .1729638.0781465.1729638.173889 0 2.9354117-1.7090472 4.8316297-4.3549818 4.8316297h-13.988449c-2.3602354 0-4.0090542 1.4604605-4.0090542 3.550751 0 .09626-.077216.173889-.1729638.173889"/><path d="m78.7389136 96.031746c-.0927149 0-.167485-.077629-.167485-.173889 0-2.9193683 1.6549119-4.8062709 4.2170345-4.8062709h9.0262484c2.2854732 0 3.8825629-1.4697759 3.8825629-3.5761098 0-.09626.0747701-.173889.1669866-.173889.0932134 0 .167485.077629.167485.173889 0 2.9354117-1.6544134 4.8316297-4.2170345 4.8316297h-9.0262484c-2.2854732 0-3.8820644 1.4604605-3.8820644 3.550751 0 .09626-.0747701.173889-.1674851.173889"/><path d="m66.5150749 85.5555556c-.0918201 0-.1658686-.0776291-.1658686-.173889 0-2.9193684 1.6389392-4.806271 4.176333-4.806271h19.5838421c2.2634144 0 3.8445958-1.4697759 3.8445958-3.5761098 0-.09626.0740485-.173889.1658685-.173889.0918201 0 .1658686.077629.1658686.173889 0 2.9354117-1.6384455 4.8316297-4.1763329 4.8316297h-19.5838421c-2.2634145 0-3.8445959 1.4604605-3.8445959 3.5507511 0 .0962599-.0740484.173889-.1658685.173889"/><path d="m139.849869 50.6349206c-.092629 0-.167329-.077629-.167329-.173889 0-2.9193683 1.65337-4.8062709 4.213105-4.8062709h17.764265c2.283344 0 3.878448-1.4697759 3.878448-3.5761098 0-.09626.0747-.173889.167329-.173889.092628 0 .167329.077629.167329.173889 0 2.9354117-1.652872 4.8316297-4.213106 4.8316297h-17.764265c-2.283344 0-3.878447 1.4604605-3.878447 3.550751 0 .09626-.074701.173889-.167329.173889"/><path d="m162.045102 51.9906375h-4.565941c-.187188.0106105-.336304.1813891-.336304.3905675 0 .2111995.149116.3829886.336304.3900622h4.565941c.186734-.0070736.33585-.1788627.33585-.3900622 0-.2091784-.149116-.379957-.33585-.3905675"/><path d="m160.299041 57.2297433h-4.565882c-.187205.0101052-.336334.181389-.336334.389557 0 .21221.149129.3829885.336334.3890516h4.565882c.186751-.0060631.33588-.1768416.33588-.3890516 0-.208168-.149129-.3794518-.33588-.389557"/><path d="m111.410152 109.61019h-4.565882c-.187658.010106-.336333.181389-.336333.389557 0 .21221.148675.382989.336333.390063h4.565882c.186751-.007074.33588-.177853.33588-.390063 0-.208168-.149129-.379451-.33588-.389557"/><path d="m95.6954128 99.1339999h-4.5654288c-.1872043.0101053-.3363332.1813891-.3363332.389557 0 .21221.1491289.3839991.3363332.3900622h4.5654288c.1876576-.0060631.3363332-.1778522.3363332-.3900622 0-.2081679-.1486756-.3794517-.3363332-.389557"/><path d="m62.5208678 99.1339999h-4.5655452c-.1871719.0101053-.336275.1813891-.336275.3890517 0 .2127153.1491031.3834938.336275.3905675h4.5655452c.1867188-.0070737.3362751-.1778522.3362751-.3905675 0-.2076626-.1495563-.3789464-.3362751-.3890517"/><path d="m128.837392 69.4514603h-4.499683c-.205142.0090947-.369455.1803785-.369455.3895569 0 .2111995.164313.3829886.369455.3900622h4.499683c.205142-.0070736.368957-.1788627.368957-.3900622 0-.2091784-.163815-.3804622-.368957-.3895569"/><path d="m139.305189 78.181619h-9.72098c-.209809.0090947-.37786.1803785-.37786.3895569 0 .2111995.168051.3829886.37786.3900623h9.72098c.209809-.0070737.377351-.1788628.377351-.3900623 0-.2091784-.167542-.3804622-.377351-.3895569"/><path d="m128.839995 60.7213015h-20.219178c-.203695.0090947-.366849.1803785-.366849.389557 0 .2111995.163154.3829885.366849.3900622h20.219178c.203695-.0070737.366354-.1788627.366354-.3900622 0-.2091785-.162659-.3804623-.366354-.389557"/><path d="m109.734059 94.2857143h-4.671521c-.081991-.0024775-.300633 0-.300633-.2176088 0-.2258672.218642-.2204992.300633-.2233897h4.669569 10.278617c.439237 0 .817956-.046247 1.158608-.1395669.703754-.1887044 1.348943-.5768491 1.771586-1.0661591.189848-.2196734.3387-.4389339.441189-.6524135.091263-.1808589.160077-.3670857.204001-.5582676.040995-.1589742.055636-.2861535.061005-.3724538l.013177-.1420444c.006832-.0685447.074182-.1201597.153732-.1201597h.008297c.081991.0041292.1469.0627638.145935.1321344l-.003915.1403927c.00244.0920812-.004393.2332998-.035139.4120941-.032699.2105891-.093704.4228299-.180087.6276382-.101024.2572491-.251829.510369-.448021.7498625-.193752.2494036-.465102.4942651-.807219.7275649-.372862.2489906-.764759.4281979-1.166904.5363829-.399705.1143788-.86676.1659938-1.383106.1659938z"/><path d="m56.6448113 85.5555556c-2.3511704 0-4.2638589-1.9358151-4.2638589-4.3131407v-2.4996843c0-.0932984.0761043-.171302.1698487-.171302h1.4863026c.0937444 0 .1693448.0780036.1693448.171302v2.4996843c0 2.4104644 1.2726056 3.9705366 3.2427504 3.9705366.0932404 0 .1698487.0769839.1698487.171302 0 .0948279-.0766083.1713021-.1698487.1713021z"/><path d="m91.1055269 107.510737v-56.5759158l.0021044-2.2147192c-.0042088-.7087899-.0868069-1.4185782-.2488465-2.1088997-.3225009-1.3786465-.9627677-2.693402-1.8508289-3.8050043-1.7456084-2.2122234-5.0200708-3.2619314-6.7872494-3.5254814-.3235531-.0484174-1.1942529-.1153032-1.5167537-.1153032-1.0632534 0-1.8266282.1392623-2.8304319.4542246-1.2300279.3838447-2.4211241 1.0197591-3.4449197 1.8413565-1.8829212 1.5004385-3.2065953 3.5738988-3.7295412 5.8380335-.466653 1.9955932-.3098744 4.0475902.4408739 5.7771375.3172399.7467253.7449613 1.4640008 1.2726422 2.1358538.4819099.5780132.99486 1.0871441 1.523067 1.5094232.7907321.6374118 1.6493315 1.1480401 2.6241996 1.5608354.2193848.1038227.4082556.1702094.5602993.2241174.0789154.0259557.4687574.1707085.4687574.1707085.0841764.0309472.1273168.1217921.0952245.2016558-.025779.0643901-.0883852.1033236-.1557263.1033236-.0189397 0-.0378794-.0029949-.056293-.009983 0 0-.3929986-.1362673-.4661269-.1597273-.1620396-.0544071-.364063-.1207938-.5939698-.2241174-1.0106431-.4038106-1.9102785-.9154372-2.7441511-1.5598371-.5581948-.4282689-1.1037632-.9478818-1.6225003-1.5433652-.5713474-.698807-1.0374743-1.4440348-1.3862803-2.2187123-.8386075-1.8223889-1.0401048-3.9866941-.5681908-6.0920998.5250504-2.3994039 1.902913-4.610629 3.8789543-6.2248732 1.1006066-.9009619 2.3322128-1.5753107 3.6632523-2.0075727 1.066936-.350901 2.2070003-.5290968 3.3854701-.5290968.3367057 0 .6739374.0154736 1.0111692.0449233.8891133.0688824 1.8145278.1831873 2.7525687.5041394 4.6596905 1.2878015 7.7573825 5.4941206 7.7573825 10.1067462v59.1854607z"/><path d="m128.40863 107.202265c-.339985-.784866-.793812-1.537933-1.351224-2.243555-.504593-.603665-1.037391-1.128087-1.58147-1.559637-.812273-.651615-1.689671-1.169475-2.67527-1.578312-.222555-.10448-.419982-.17262-.577924-.226626-.071279-.024732-.45434-.162021-.45434-.162021-.017948-.006561-.036921-.00959-.054869-.00959-.065638 0-.127687.040379-.151788.104481-.030768.080758.010256.17161.093329.202904 0 0 .378958.146878.455878.174639.148711.052997.332293.120127.546643.226627.950728.416912 1.787103.932753 2.557839 1.577302.514337.425998 1.014828.940325 1.485065 1.526324.514337.678871.930729 1.405692 1.240459 2.159769.730738 1.747903.883552 3.823886.4287 5.842833-.509209 2.288981-1.799923 4.385658-3.634716 5.902896-.998419.830292-2.158882 1.473832-3.357292 1.862479-.97842.318489-2.000427.478995-3.03628.478995-.313833 0-.63023-.015646-.947652-.045426-2.785521-.234703-5.591555-1.680773-7.291995-3.917767-.866117-1.123544-1.48968-2.454535-1.804538-3.849123-.156916-.697041-.241015-1.443547-.245118-2.159264v-27.1906747c0-2.2062045-1.824024-4.002058-4.067518-4.002058h-.806632c-.089739 0-.162044.0716726-.162044.1594968s.072305.1589921.162044.1589921c2.063502 0 3.74343 1.653013 3.74343 3.6835691v27.1285927c0 4.663768 3.177812 8.832894 7.719669 10.135114.913807.323537 1.81787.523412 2.685526.593571.327165.030789.656894.045426.985085.045426 1.149182 0 2.259904-.179686 3.299346-.535526 1.296868-.435587 2.498867-1.119001 3.571129-2.030556 1.926584-1.631814 3.269604-3.866283 3.780864-6.293563.460493-2.128475.263065-4.317013-.554336-6.160312"/><path d="m129.890892 85.5555556c-2.157014 0-3.912023-1.8352761-3.912023-4.09233v-31.9725215c0-2.0779145-1.615911-3.7681237-3.600778-3.7681237-.08632 0-.155869-.0733078-.155869-.1631356 0-.0898279.069549-.1626194.155869-.1626194h.905621c2.158 0 3.912516 1.835276 3.912516 4.0938787v31.9725215c0 2.0779145 1.615417 3.7665749 3.600777 3.7665749.08632 0 .155376.0738241.155376.1636519 0 .0903441-.069056.1621032-.155376.1621032z"/><path d="m161.318596 89.047619c-2.156769 0-3.91158-1.8481626-3.91158-4.1192671v-19.6958953c0-2.092887-1.615235-3.7934876-3.600371-3.7934876-.085817 0-.155851-.0732614-.155851-.1636691 0-.0904078.070034-.1641888.155851-.1641888h.906011c2.157263 0 3.912074 1.8481626 3.912074 4.1213455v19.6958953c0 2.0908087 1.615235 3.7914092 3.600864 3.7914092.085817 0 .155358.0732615.155358.1636692 0 .0898881-.069541.1641887-.155358.1641887z"/></g></svg>