<?xml version="1.0" encoding="utf-8"?>
<!-- Generator: Adobe Illustrator 16.0.0, SVG Export Plug-In . SVG Version: 6.00 Build 0)  -->
<!DOCTYPE svg PUBLIC "-//W3C//DTD SVG 1.1//EN" "http://www.w3.org/Graphics/SVG/1.1/DTD/svg11.dtd">
<svg version="1.1" id="圖層_1" xmlns="http://www.w3.org/2000/svg" xmlns:xlink="http://www.w3.org/1999/xlink" x="0px" y="0px"
	 width="24px" height="24px" viewBox="0 0 24 24" enable-background="new 0 0 24 24" xml:space="preserve">
<rect id="Rectangle_107" fill="none" width="24" height="24"/>
<path id="Path_1004" fill="#666666" d="M7.294,3.877c-0.383,0.385-0.383,1.007,0,1.392L14.021,12l-6.733,6.732
	c-0.383,0.386-0.383,1.008,0,1.394l0.59,0.59c0.385,0.384,1.007,0.384,1.392,0l8.046-8.017c0.193-0.183,0.307-0.434,0.315-0.7l0,0
	c-0.009-0.266-0.122-0.518-0.315-0.7L9.292,3.29c-0.186-0.185-0.438-0.288-0.7-0.288C8.33,3.001,8.078,3.104,7.892,3.29L7.294,3.877
	z"/>
</svg>
