<?xml version="1.0" encoding="utf-8"?>
<!-- Generator: Adobe Illustrator 16.0.0, SVG Export Plug-In . SVG Version: 6.00 Build 0)  -->
<!DOCTYPE svg PUBLIC "-//W3C//DTD SVG 1.1//EN" "http://www.w3.org/Graphics/SVG/1.1/DTD/svg11.dtd">
<svg version="1.1" id="圖層_1" xmlns="http://www.w3.org/2000/svg" xmlns:xlink="http://www.w3.org/1999/xlink" x="0px" y="0px"
	 width="24px" height="24px" viewBox="0 0 24 24" enable-background="new 0 0 24 24" xml:space="preserve">
<rect id="Rectangle_107" fill="none" width="24" height="24"/>
<path id="Path_1004" fill="#666666" d="M16.706,20.123c0.383-0.385,0.383-1.007,0-1.393L9.979,12l6.733-6.733
	c0.384-0.385,0.384-1.008,0-1.393l-0.59-0.59c-0.385-0.384-1.007-0.384-1.392,0l-8.046,8.017c-0.194,0.183-0.308,0.434-0.316,0.7
	l0,0c0.008,0.266,0.122,0.518,0.316,0.7l8.024,8.009c0.187,0.185,0.438,0.288,0.7,0.288c0.262,0.001,0.514-0.103,0.699-0.288
	L16.706,20.123z"/>
</svg>
