<?xml version="1.0" encoding="utf-8"?>
<!-- Generator: Adobe Illustrator 16.0.0, SVG Export Plug-In . SVG Version: 6.00 Build 0)  -->
<!DOCTYPE svg PUBLIC "-//W3C//DTD SVG 1.1//EN" "http://www.w3.org/Graphics/SVG/1.1/DTD/svg11.dtd">
<svg version="1.1" id="圖層_1" xmlns="http://www.w3.org/2000/svg" xmlns:xlink="http://www.w3.org/1999/xlink" x="0px" y="0px"
	 width="51.196px" height="50.843px" viewBox="0 0 51.196 50.843" enable-background="new 0 0 51.196 50.843" xml:space="preserve">
<path fill="#BBBBBB" d="M23.151,25.429L0.487,48.089c-0.629,0.633-0.629,1.652,0,2.281c0.313,0.316,0.727,0.473,1.141,0.473
	c0.41,0,0.824-0.156,1.137-0.473l22.832-22.832L48.433,50.37c0.313,0.316,0.727,0.473,1.136,0.473c0.414,0,0.825-0.156,1.142-0.473
	c0.629-0.629,0.629-1.648,0-2.281l-22.66-22.66l22.676-22.68c0.628-0.629,0.628-1.648,0-2.277c-0.629-0.629-1.648-0.629-2.277,0
	L25.601,23.32L2.749,0.472c-0.629-0.629-1.648-0.629-2.277,0s-0.629,1.648,0,2.277L23.151,25.429z"/>
</svg>
