<?xml version="1.0" encoding="utf-8"?>
<!-- Generator: Adobe Illustrator 24.3.0, SVG Export Plug-In . SVG Version: 6.00 Build 0)  -->
<svg version="1.1" id="圖層_1" xmlns="http://www.w3.org/2000/svg" xmlns:xlink="http://www.w3.org/1999/xlink" x="0px" y="0px"
	 viewBox="0 0 164 32.4" style="enable-background:new 0 0 164 32.4;" xml:space="preserve">
<g>
	<path d="M11.5,24.4c0,1.4,1.2,1.6,2,1.6h4.4c3.4,0,5.2-1.4,7.2-4.8h0.8L23.4,27H6.9V26h1.8c1,0,1.3-0.7,1.3-1.6V8
		c0-1-0.5-1.6-1.4-1.6H6.9V5.5h7.8v0.9h-1.6c-1.4,0-1.6,0.8-1.6,1.6V24.4z"/>
	<path d="M37.8,27.4c-5.6,0-9.9-4.5-9.9-11.1c0-6.2,4.3-11.2,9.9-11.2c5.4,0,9.6,5.1,9.6,11.2C47.4,23,43.1,27.4,37.8,27.4z
		 M29.6,16.3c0,5.7,3.2,10.2,8.2,10.2c4.5,0,7.9-4.1,7.9-10.2c0-5.9-3.3-10.3-7.9-10.3c-2.2,0-4.1,0.9-5.6,2.6
		C30.5,10.6,29.6,13.2,29.6,16.3z"/>
	<path d="M67,25.6c-1.2,0-2.5,0.2-3.6,0.7c-1.4,0.6-2.8,0.9-4.2,0.9c-5.3,0-9.2-4.7-9.2-10.7c0-3.5,1.1-6.3,3.2-8.4
		c1.9-1.9,4.1-2.8,6.7-2.8c1.2,0,2.6,0.5,4.3,1.4l1.1-0.6h0.4l1.5,5.3h-0.8c-0.9-2-2-3.3-3.1-4.1c-1.1-0.7-2.2-1.1-3.4-1.1
		c-4,0-8.2,3.6-8.2,10.2c0,5.6,3.5,9.8,7.7,9.8c3.5,0,6.2-1.7,6.2-3.7v-2.4c0-1-0.8-1.5-1.8-1.5h-1.6v-0.9h7.5v0.9h-1.5
		c-1,0-1.3,0.8-1.3,1.5V25.6z"/>
	<path d="M81.5,27.4c-5.6,0-9.9-4.5-9.9-11.1c0-6.2,4.3-11.2,9.9-11.2c5.4,0,9.6,5.1,9.6,11.2C91.1,23,86.7,27.4,81.5,27.4z
		 M73.3,16.3c0,5.7,3.2,10.2,8.2,10.2c4.5,0,7.9-4.1,7.9-10.2C89.4,10.4,86,6,81.5,6c-2.2,0-4.1,0.9-5.6,2.6
		C74.1,10.6,73.3,13.2,73.3,16.3z"/>
	<path d="M103.5,27.4c-5.6,0-9.9-4.5-9.9-11.1c0-6.2,4.3-11.2,9.9-11.2c5.4,0,9.6,5.1,9.6,11.2C113.1,23,108.7,27.4,103.5,27.4z
		 M95.3,16.3c0,5.7,3.2,10.2,8.2,10.2c4.5,0,7.9-4.1,7.9-10.2c0-5.9-3.3-10.3-7.9-10.3c-2.2,0-4.1,0.9-5.6,2.6
		C96.1,10.6,95.3,13.2,95.3,16.3z"/>
	<path d="M125.5,27.4c-5.6,0-9.9-4.5-9.9-11.1c0-6.2,4.3-11.2,9.9-11.2c5.4,0,9.6,5.1,9.6,11.2C135.1,23,130.8,27.4,125.5,27.4z
		 M117.3,16.3c0,5.7,3.2,10.2,8.2,10.2c4.5,0,7.9-4.1,7.9-10.2c0-5.9-3.3-10.3-7.9-10.3c-2.2,0-4.1,0.9-5.6,2.6
		C118.2,10.6,117.3,13.2,117.3,16.3z"/>
	<path d="M147.5,27.4c-5.6,0-9.9-4.5-9.9-11.1c0-6.2,4.3-11.2,9.9-11.2c5.4,0,9.6,5.1,9.6,11.2C157.1,23,152.8,27.4,147.5,27.4z
		 M139.3,16.3c0,5.7,3.2,10.2,8.2,10.2c4.5,0,7.9-4.1,7.9-10.2c0-5.9-3.3-10.3-7.9-10.3c-2.2,0-4.1,0.9-5.6,2.6
		C140.2,10.6,139.3,13.2,139.3,16.3z"/>
</g>
</svg>
